<svg id="Layer_1" data-name="Layer 1" xmlns="http://www.w3.org/2000/svg" viewBox="0 0 260.13 50.14"><defs><style>.cls-1{fill:#231f20;}</style></defs><path class="cls-1" d="M97.42,265c-2-1.82-3-4.73-3-8.66V229.26c0-3.93,1-7,3-9.17s4.89-3.21,8.68-3.21,6.68,1,8.67,3,3,4.81,3,8.47c0,1.65,0,3.3,0,5l-7.48.37c0-1.85,0-3.69,0-5.54,0-3-1.32-4.42-4-4.36s-4,1.6-4,4.64l0,27.43c0,3,1.3,4.31,3.93,3.95s3.95-2,3.95-4.91c0-2.44,0-4.88,0-7.32l7.46-.69c0,2.21,0,4.42,0,6.63a13.19,13.19,0,0,1-3,8.9,13.88,13.88,0,0,1-8.64,4.35C102.26,267.39,99.39,266.83,97.42,265Z" transform="translate(-94.45 -216.88)"/><path class="cls-1" d="M125.05,261c-2.06-1.75-3.08-4.49-3.06-8.2q0-12.15.07-24.3c0-3.7,1-6.59,3.12-8.62s5-3,8.94-3,6.86,1,8.92,2.87,3.07,4.58,3.06,8.05q0,11.41-.1,22.83a11.53,11.53,0,0,1-3.13,8.37c-2.07,2.12-5,3.43-8.93,3.9S127.1,262.77,125.05,261Zm13-9.28q.06-12.09.1-24.16,0-4.37-4.08-4.3T130,227.8l-.09,24.68c0,3,1.35,4.31,4.08,4S138.07,254.63,138.08,251.73Z" transform="translate(-94.45 -216.88)"/><path class="cls-1" d="M151.47,217.49h12.09c3.94,0,6.89.86,8.85,2.58s2.94,4.22,2.92,7.54q0,10.36-.07,20.74a10.14,10.14,0,0,1-3,7.74q-3,2.79-8.88,3.25-6.06.48-12.1,1.06Zm11.8,35.87a4.61,4.61,0,0,0,3-1.15,4.22,4.22,0,0,0,1-3.15l.09-21.61a4,4,0,0,0-1-3.08,4.22,4.22,0,0,0-3-.91l-4,0-.12,30.14Z" transform="translate(-94.45 -216.88)"/><path class="cls-1" d="M180.7,217.46h21.6c0,1.89,0,3.79,0,5.68l-13.69.08,0,10.65c3.63-.07,7.26-.14,10.89-.18,0,1.89,0,3.79,0,5.69-3.64.06-7.27.15-10.9.24l0,12.37q6.85-.27,13.71-.45c0,1.9,0,3.79,0,5.69q-10.83.31-21.66.93Q180.64,237.81,180.7,217.46Z" transform="translate(-94.45 -216.88)"/><path class="cls-1" d="M209.27,255.06a8.73,8.73,0,0,1-3-7.13q0-10.65,0-21.3a8.92,8.92,0,0,1,3-7.2c2-1.7,4.89-2.55,8.68-2.55s6.68.85,8.67,2.54a8.89,8.89,0,0,1,3,7.16v4.17h-7.5v-4.56q0-3.66-4-3.66c-2.64,0-4,1.23-4,3.67l0,22.08c0,2.41,1.32,3.59,4,3.57s4-1.22,4-3.62v-6h7.5v5.59a8.81,8.81,0,0,1-3,7.14c-2,1.69-4.9,2.53-8.71,2.56S211.26,256.72,209.27,255.06Z" transform="translate(-94.45 -216.88)"/><path class="cls-1" d="M234.41,217.44h7.92l0,16.14,8.51.1q0-8.12,0-16.24h7.92l.12,40.21q-4-.18-8-.31,0-9,0-18c-2.84,0-5.67-.1-8.51-.13l0,17.84q-4-.09-8-.14Q234.44,237.21,234.41,217.44Z" transform="translate(-94.45 -216.88)"/><path class="cls-1" d="M267.52,256a10,10,0,0,1-3-7.7q-.06-15.45-.1-30.88h7.92q.06,15.85.11,31.69a4.12,4.12,0,0,0,1.06,3.1,4.64,4.64,0,0,0,3,1.11,4.14,4.14,0,0,0,3-.76,3.76,3.76,0,0,0,1-3q-.06-16.05-.13-32.11H288q.07,16,.14,32.08,0,5.12-3,7.61c-2,1.66-4.94,2.33-8.78,2.06S269.55,257.91,267.52,256Z" transform="translate(-94.45 -216.88)"/><path class="cls-1" d="M293.6,217.49h11.3q2.6,15.62,5.17,31.63h.15q2.44-15.62,4.91-31.62l11.3,0,.15,46.17-7.47-1q-.06-17.13-.13-34.24h-.14q-2.82,17-5.63,33.54c-2.2-.26-4.41-.51-6.61-.74q-3-16.89-5.9-33.31h-.14q.06,16.33.13,32.69-3.45-.35-6.91-.65Z" transform="translate(-94.45 -216.88)"/><path class="cls-1" d="M334,262.36a13.63,13.63,0,0,1-3-9.12v-2.68l7.46.77c0,1.1,0,2.19,0,3.28q0,4.65,4.09,5.2a3.5,3.5,0,0,0,3.05-.73c.69-.68,1-1.88,1-3.62a11,11,0,0,0-1.44-5.59,28.16,28.16,0,0,0-5.32-6.07A36.94,36.94,0,0,1,333.1,236a14.69,14.69,0,0,1-2-7.44c0-3.69,1-6.53,3-8.56s4.94-3.07,8.78-3.07,6.66,1.06,8.6,3.24,2.92,5.35,2.92,9.43v2.08l-7.48-.36v-2.52a5.68,5.68,0,0,0-1-3.72,3.81,3.81,0,0,0-2.95-1.22c-2.64-.05-3.95,1.45-3.95,4.51a9.21,9.21,0,0,0,1.48,4.93,32.24,32.24,0,0,0,5.37,5.88,31.41,31.41,0,0,1,6.82,8.3,18.68,18.68,0,0,1,1.86,8.47c0,4.14-1,7.16-3,9s-5,2.44-8.83,1.82S336,264.67,334,262.36Z" transform="translate(-94.45 -216.88)"/></svg>